# xmcd
#
# Track frame offsets: 
#        150
#        9308
#        22677
#        32441
#        47584
#        56878
#        65592
#        83687
#        99629
#        118538
#        128194
#        135817
#        152695
#        172288
#        193091
#
# Disc length: 2721 seconds
#
# Revision: 0
# Processed by: cddbd v1.5.2PL0 Copyright (c) Steve Scherf et al.
# Submitted via: ExactAudioCopy v0.99pb4
#
DISCID=ba0a9f0f
DTITLE=A Night in the Box - Write A Letter
DYEAR=2008
DGENRE=Blues
TTITLE0=Broken-down Radiator Romance Blues
TTITLE1=The Garden
TTITLE2=Fiddle Foot Jones
TTITLE3=Let Me Know
TTITLE4=The Legend of Kevin Mitsch
TTITLE5=Untitled
TTITLE6=By The Sea
TTITLE7=Rich Man's Table
TTITLE8=Empty Handed Blues
TTITLE9=When It's Snowing
TTITLE10=Untitled
TTITLE11=Stone Hands
TTITLE12=Terraplane Blues
TTITLE13=West Texas
TTITLE14=Return to Me
EXTD=
EXTT0=
EXTT1=
EXTT2=
EXTT3=
EXTT4=
EXTT5=
EXTT6=
EXTT7=
EXTT8=
EXTT9=
EXTT10=
EXTT11=
EXTT12=
EXTT13=
EXTT14=
PLAYORDER=
